<svg width="1200" height="56" viewBox="0 0 1200 56" fill="none" xmlns="http://www.w3.org/2000/svg">
<rect x="164" y="4" width="1036" height="48" rx="24" fill="#8D7D66"/>
<rect x="168" y="8" width="405" height="40" rx="20" fill="#FF9CCC" stroke="#8D7D66" stroke-width="8"/>
<path d="M3.07813 43V39.5L13.9063 28.2812C15.0625 27.0625 16.0156 25.9948 16.7656 25.0781C17.526 24.151 18.0938 23.2708 18.4688 22.4375C18.8438 21.6042 19.0313 20.7187 19.0313 19.7812C19.0313 18.7187 18.7813 17.8021 18.2813 17.0312C17.7813 16.25 17.099 15.651 16.2344 15.2344C15.3698 14.8073 14.3958 14.5937 13.3125 14.5937C12.1667 14.5937 11.1667 14.8281 10.3125 15.2969C9.45833 15.7656 8.80208 16.4271 8.34375 17.2812C7.88542 18.1354 7.65625 19.1354 7.65625 20.2812H3.04688C3.04688 18.3333 3.49479 16.6302 4.39063 15.1719C5.28646 13.7135 6.51562 12.5833 8.07812 11.7812C9.64063 10.9687 11.4167 10.5625 13.4062 10.5625C15.4167 10.5625 17.1875 10.9635 18.7188 11.7656C20.2604 12.5573 21.4635 13.6406 22.3281 15.0156C23.1927 16.3802 23.625 17.9219 23.625 19.6406C23.625 20.8281 23.401 21.9896 22.9531 23.125C22.5156 24.2604 21.75 25.526 20.6563 26.9219C19.5625 28.3073 18.0417 29.9896 16.0938 31.9687L9.73438 38.625V38.8594H24.1406V43H3.07813ZM51.8789 43.4844C49.6289 43.4844 47.6654 42.9688 45.9883 41.9375C44.3112 40.9062 43.0091 39.4635 42.082 37.6094C41.1549 35.7552 40.6914 33.5885 40.6914 31.1094C40.6914 28.6198 41.1549 26.4427 42.082 24.5781C43.0091 22.7135 44.3112 21.2656 45.9883 20.2344C47.6654 19.2031 49.6289 18.6875 51.8789 18.6875C54.1289 18.6875 56.0924 19.2031 57.7695 20.2344C59.4466 21.2656 60.7487 22.7135 61.6758 24.5781C62.6029 26.4427 63.0664 28.6198 63.0664 31.1094C63.0664 33.5885 62.6029 35.7552 61.6758 37.6094C60.7487 39.4635 59.4466 40.9062 57.7695 41.9375C56.0924 42.9688 54.1289 43.4844 51.8789 43.4844ZM51.8945 39.5625C53.3529 39.5625 54.5612 39.1771 55.5195 38.4062C56.4779 37.6354 57.1862 36.6094 57.6445 35.3281C58.1133 34.0469 58.3477 32.6354 58.3477 31.0937C58.3477 29.5625 58.1133 28.1562 57.6445 26.875C57.1862 25.5833 56.4779 24.5469 55.5195 23.7656C54.5612 22.9844 53.3529 22.5937 51.8945 22.5937C50.4258 22.5937 49.207 22.9844 48.2383 23.7656C47.2799 24.5469 46.5664 25.5833 46.0977 26.875C45.6393 28.1562 45.4102 29.5625 45.4102 31.0937C45.4102 32.6354 45.6393 34.0469 46.0977 35.3281C46.5664 36.6094 47.2799 37.6354 48.2383 38.4062C49.207 39.1771 50.4258 39.5625 51.8945 39.5625ZM79.7031 19V22.75H66.1406V19H79.7031ZM69.8594 43V16.2187C69.8594 14.7187 70.1875 13.474 70.8438 12.4844C71.5 11.4844 72.3698 10.7396 73.4531 10.25C74.5365 9.75 75.7135 9.5 76.9844 9.5C77.9219 9.5 78.724 9.57812 79.3906 9.73437C80.0573 9.88021 80.5521 10.0156 80.875 10.1406L79.7813 13.9219C79.5625 13.8594 79.2813 13.7865 78.9375 13.7031C78.5938 13.6094 78.1771 13.5625 77.6875 13.5625C76.5521 13.5625 75.7396 13.8437 75.25 14.4062C74.7708 14.9687 74.5313 15.7812 74.5313 16.8437V43H69.8594ZM106.668 43.4375C104.71 43.4375 102.949 43.0625 101.387 42.3125C99.8346 41.5521 98.5951 40.5104 97.668 39.1875C96.7409 37.8646 96.2461 36.3542 96.1836 34.6562H100.871C100.986 36.0312 101.595 37.1615 102.699 38.0469C103.803 38.9323 105.126 39.375 106.668 39.375C107.897 39.375 108.986 39.0937 109.934 38.5312C110.892 37.9583 111.642 37.1719 112.184 36.1719C112.736 35.1719 113.012 34.0312 113.012 32.75C113.012 31.4479 112.73 30.2865 112.168 29.2656C111.605 28.2448 110.829 27.4427 109.84 26.8594C108.861 26.276 107.736 25.9792 106.465 25.9687C105.496 25.9687 104.522 26.1354 103.543 26.4687C102.564 26.8021 101.772 27.2396 101.168 27.7812L96.7461 27.125L98.543 11H116.137V15.1406H102.559L101.543 24.0938H101.73C102.355 23.4896 103.184 22.9844 104.215 22.5781C105.257 22.1719 106.371 21.9687 107.559 21.9687C109.507 21.9687 111.241 22.4323 112.762 23.3594C114.293 24.2865 115.496 25.5521 116.371 27.1562C117.257 28.75 117.694 30.5833 117.684 32.6562C117.694 34.7292 117.225 36.5781 116.277 38.2031C115.34 39.8281 114.038 41.1094 112.371 42.0469C110.715 42.974 108.814 43.4375 106.668 43.4375Z" fill="black"/>
</svg>
