<svg width="1200" height="56" viewBox="0 0 1200 56" fill="none" xmlns="http://www.w3.org/2000/svg">
<rect x="164" y="4" width="1036" height="48" rx="24" fill="#A49279"/>
<rect x="168" y="8" width="200" height="40" rx="20" fill="#00C2FF" stroke="#A49279" stroke-width="8"/>
<path d="M15.2188 11V43H10.375V15.8438H10.1875L2.53125 20.8438V16.2187L10.5156 11H15.2188ZM45.6914 43.4844C43.4414 43.4844 41.4779 42.9688 39.8008 41.9375C38.1237 40.9062 36.8216 39.4635 35.8945 37.6094C34.9674 35.7552 34.5039 33.5885 34.5039 31.1094C34.5039 28.6198 34.9674 26.4427 35.8945 24.5781C36.8216 22.7135 38.1237 21.2656 39.8008 20.2344C41.4779 19.2031 43.4414 18.6875 45.6914 18.6875C47.9414 18.6875 49.9049 19.2031 51.582 20.2344C53.2591 21.2656 54.5612 22.7135 55.4883 24.5781C56.4154 26.4427 56.8789 28.6198 56.8789 31.1094C56.8789 33.5885 56.4154 35.7552 55.4883 37.6094C54.5612 39.4635 53.2591 40.9062 51.582 41.9375C49.9049 42.9688 47.9414 43.4844 45.6914 43.4844ZM45.707 39.5625C47.1654 39.5625 48.3737 39.1771 49.332 38.4062C50.2904 37.6354 50.9987 36.6094 51.457 35.3281C51.9258 34.0469 52.1602 32.6354 52.1602 31.0937C52.1602 29.5625 51.9258 28.1562 51.457 26.875C50.9987 25.5833 50.2904 24.5469 49.332 23.7656C48.3737 22.9844 47.1654 22.5937 45.707 22.5937C44.2383 22.5937 43.0195 22.9844 42.0508 23.7656C41.0924 24.5469 40.3789 25.5833 39.9102 26.875C39.4518 28.1562 39.2227 29.5625 39.2227 31.0937C39.2227 32.6354 39.4518 34.0469 39.9102 35.3281C40.3789 36.6094 41.0924 37.6354 42.0508 38.4062C43.0195 39.1771 44.2383 39.5625 45.707 39.5625ZM73.5156 19V22.75H59.9531V19H73.5156ZM63.6719 43V16.2187C63.6719 14.7187 64 13.474 64.6563 12.4844C65.3125 11.4844 66.1823 10.7396 67.2656 10.25C68.349 9.75 69.526 9.5 70.7969 9.5C71.7344 9.5 72.5365 9.57812 73.2031 9.73437C73.8698 9.88021 74.3646 10.0156 74.6875 10.1406L73.5938 13.9219C73.375 13.8594 73.0938 13.7865 72.75 13.7031C72.4063 13.6094 71.9896 13.5625 71.5 13.5625C70.3646 13.5625 69.5521 13.8437 69.0625 14.4062C68.5833 14.9687 68.3438 15.7812 68.3438 16.8437V43H63.6719ZM100.48 43.4375C98.5221 43.4375 96.7617 43.0625 95.1992 42.3125C93.6471 41.5521 92.4076 40.5104 91.4805 39.1875C90.5534 37.8646 90.0586 36.3542 89.9961 34.6562H94.6836C94.7982 36.0312 95.4076 37.1615 96.5117 38.0469C97.6159 38.9323 98.9388 39.375 100.48 39.375C101.71 39.375 102.798 39.0937 103.746 38.5312C104.704 37.9583 105.454 37.1719 105.996 36.1719C106.548 35.1719 106.824 34.0312 106.824 32.75C106.824 31.4479 106.543 30.2865 105.98 29.2656C105.418 28.2448 104.642 27.4427 103.652 26.8594C102.673 26.276 101.548 25.9792 100.277 25.9687C99.3086 25.9687 98.3346 26.1354 97.3555 26.4687C96.3763 26.8021 95.5846 27.2396 94.9805 27.7812L90.5586 27.125L92.3555 11H109.949V15.1406H96.3711L95.3555 24.0938H95.543C96.168 23.4896 96.9961 22.9844 98.0273 22.5781C99.069 22.1719 100.184 21.9687 101.371 21.9687C103.319 21.9687 105.053 22.4323 106.574 23.3594C108.105 24.2865 109.309 25.5521 110.184 27.1562C111.069 28.75 111.507 30.5833 111.496 32.6562C111.507 34.7292 111.038 36.5781 110.09 38.2031C109.152 39.8281 107.85 41.1094 106.184 42.0469C104.527 42.974 102.626 43.4375 100.48 43.4375Z" fill="black"/>
</svg>
