<svg width="1200" height="56" viewBox="0 0 1200 56" fill="none" xmlns="http://www.w3.org/2000/svg">
<rect x="164" y="4" width="1036" height="48" rx="24" fill="#A49279"/>
<rect x="168" y="8" width="1028" height="40" rx="20" fill="#00C2FF" stroke="#A49279" stroke-width="8"/>
<path d="M13.6406 43.4375C11.6823 43.4375 9.92188 43.0625 8.35938 42.3125C6.80729 41.5521 5.56771 40.5104 4.64062 39.1875C3.71354 37.8646 3.21875 36.3542 3.15625 34.6562H7.84375C7.95833 36.0312 8.56771 37.1615 9.67188 38.0469C10.776 38.9323 12.099 39.375 13.6406 39.375C14.8698 39.375 15.9583 39.0937 16.9063 38.5312C17.8646 37.9583 18.6146 37.1719 19.1563 36.1719C19.7083 35.1719 19.9844 34.0312 19.9844 32.75C19.9844 31.4479 19.7031 30.2865 19.1406 29.2656C18.5781 28.2448 17.8021 27.4427 16.8125 26.8594C15.8333 26.276 14.7083 25.9792 13.4375 25.9687C12.4688 25.9687 11.4948 26.1354 10.5156 26.4687C9.53646 26.8021 8.74479 27.2396 8.14062 27.7812L3.71875 27.125L5.51563 11H23.1094V15.1406H9.53125L8.51563 24.0938H8.70313C9.32813 23.4896 10.1563 22.9844 11.1875 22.5781C12.2292 22.1719 13.3438 21.9687 14.5313 21.9687C16.4792 21.9687 18.2135 22.4323 19.7344 23.3594C21.2656 24.2865 22.4688 25.5521 23.3438 27.1562C24.2292 28.75 24.6667 30.5833 24.6562 32.6562C24.6667 34.7292 24.1979 36.5781 23.25 38.2031C22.3125 39.8281 21.0104 41.1094 19.3438 42.0469C17.6875 42.974 15.7865 43.4375 13.6406 43.4375ZM52.1797 43.4844C49.9297 43.4844 47.9661 42.9688 46.2891 41.9375C44.612 40.9062 43.3099 39.4635 42.3828 37.6094C41.4557 35.7552 40.9922 33.5885 40.9922 31.1094C40.9922 28.6198 41.4557 26.4427 42.3828 24.5781C43.3099 22.7135 44.612 21.2656 46.2891 20.2344C47.9661 19.2031 49.9297 18.6875 52.1797 18.6875C54.4297 18.6875 56.3932 19.2031 58.0703 20.2344C59.7474 21.2656 61.0495 22.7135 61.9766 24.5781C62.9036 26.4427 63.3672 28.6198 63.3672 31.1094C63.3672 33.5885 62.9036 35.7552 61.9766 37.6094C61.0495 39.4635 59.7474 40.9062 58.0703 41.9375C56.3932 42.9688 54.4297 43.4844 52.1797 43.4844ZM52.1953 39.5625C53.6536 39.5625 54.862 39.1771 55.8203 38.4062C56.7786 37.6354 57.487 36.6094 57.9453 35.3281C58.4141 34.0469 58.6484 32.6354 58.6484 31.0937C58.6484 29.5625 58.4141 28.1562 57.9453 26.875C57.487 25.5833 56.7786 24.5469 55.8203 23.7656C54.862 22.9844 53.6536 22.5937 52.1953 22.5937C50.7266 22.5937 49.5078 22.9844 48.5391 23.7656C47.5807 24.5469 46.8672 25.5833 46.3984 26.875C45.9401 28.1562 45.7109 29.5625 45.7109 31.0937C45.7109 32.6354 45.9401 34.0469 46.3984 35.3281C46.8672 36.6094 47.5807 37.6354 48.5391 38.4062C49.5078 39.1771 50.7266 39.5625 52.1953 39.5625ZM80.0039 19V22.75H66.4414V19H80.0039ZM70.1602 43V16.2187C70.1602 14.7187 70.4883 13.474 71.1445 12.4844C71.8008 11.4844 72.6706 10.7396 73.7539 10.25C74.8372 9.75 76.0143 9.5 77.2852 9.5C78.2227 9.5 79.0247 9.57812 79.6914 9.73437C80.3581 9.88021 80.8529 10.0156 81.1758 10.1406L80.082 13.9219C79.8633 13.8594 79.582 13.7865 79.2383 13.7031C78.8945 13.6094 78.4779 13.5625 77.9883 13.5625C76.8529 13.5625 76.0404 13.8437 75.5508 14.4062C75.0716 14.9687 74.832 15.7812 74.832 16.8437V43H70.1602ZM106.969 43.4375C105.01 43.4375 103.25 43.0625 101.688 42.3125C100.135 41.5521 98.8958 40.5104 97.9688 39.1875C97.0417 37.8646 96.5469 36.3542 96.4844 34.6562H101.172C101.286 36.0312 101.896 37.1615 103 38.0469C104.104 38.9323 105.427 39.375 106.969 39.375C108.198 39.375 109.286 39.0937 110.234 38.5312C111.193 37.9583 111.943 37.1719 112.484 36.1719C113.036 35.1719 113.313 34.0312 113.313 32.75C113.313 31.4479 113.031 30.2865 112.469 29.2656C111.906 28.2448 111.13 27.4427 110.141 26.8594C109.161 26.276 108.036 25.9792 106.766 25.9687C105.797 25.9687 104.823 26.1354 103.844 26.4687C102.865 26.8021 102.073 27.2396 101.469 27.7812L97.0469 27.125L98.8438 11H116.437V15.1406H102.859L101.844 24.0938H102.031C102.656 23.4896 103.484 22.9844 104.516 22.5781C105.557 22.1719 106.672 21.9687 107.859 21.9687C109.807 21.9687 111.542 22.4323 113.063 23.3594C114.594 24.2865 115.797 25.5521 116.672 27.1562C117.557 28.75 117.995 30.5833 117.984 32.6562C117.995 34.7292 117.526 36.5781 116.578 38.2031C115.641 39.8281 114.339 41.1094 112.672 42.0469C111.016 42.974 109.115 43.4375 106.969 43.4375Z" fill="black"/>
</svg>
