<svg width="1200" height="56" viewBox="0 0 1200 56" fill="none" xmlns="http://www.w3.org/2000/svg">
<rect x="164" y="4" width="1036" height="48" rx="24" fill="#A49279"/>
<rect x="168" y="8" width="613" height="40" rx="20" fill="#00C2FF" stroke="#A49279" stroke-width="8"/>
<path d="M14.2187 43.4375C12.0729 43.4375 10.1563 43.0677 8.46875 42.3281C6.79167 41.5885 5.46354 40.5625 4.48438 39.25C3.51563 37.9271 2.99479 36.3958 2.92188 34.6562H7.82813C7.89063 35.6042 8.20833 36.4271 8.78125 37.125C9.36458 37.8125 10.125 38.3437 11.0625 38.7187C12 39.0937 13.0417 39.2812 14.1875 39.2812C15.4479 39.2812 16.5625 39.0625 17.5312 38.625C18.5104 38.1875 19.276 37.5781 19.8281 36.7969C20.3802 36.0052 20.6563 35.0938 20.6563 34.0625C20.6563 32.9896 20.3802 32.0469 19.8281 31.2344C19.2865 30.4115 18.4896 29.7656 17.4375 29.2969C16.3958 28.8281 15.1354 28.5937 13.6562 28.5937H10.9531V24.6562H13.6562C14.8438 24.6562 15.8854 24.4427 16.7813 24.0156C17.6875 23.5885 18.3958 22.9948 18.9062 22.2344C19.4167 21.4635 19.6719 20.5625 19.6719 19.5312C19.6719 18.5417 19.4479 17.6823 19 16.9531C18.5625 16.2135 17.9375 15.6354 17.125 15.2187C16.3229 14.8021 15.375 14.5937 14.2813 14.5937C13.2396 14.5937 12.2656 14.7865 11.3594 15.1719C10.4635 15.5469 9.73438 16.0885 9.17188 16.7969C8.60938 17.4948 8.30729 18.3333 8.26563 19.3125H3.59375C3.64583 17.5833 4.15625 16.0625 5.125 14.75C6.10417 13.4375 7.39583 12.4115 9 11.6719C10.6042 10.9323 12.3854 10.5625 14.3438 10.5625C16.3958 10.5625 18.1667 10.9635 19.6563 11.7656C21.1563 12.5573 22.3125 13.6146 23.125 14.9375C23.9479 16.2604 24.3542 17.7083 24.3438 19.2812C24.3542 21.0729 23.8542 22.5937 22.8437 23.8437C21.8438 25.0937 20.5104 25.9323 18.8438 26.3594V26.6094C20.9688 26.9323 22.6146 27.776 23.7813 29.1406C24.9583 30.5052 25.5417 32.1979 25.5313 34.2187C25.5417 35.9792 25.0521 37.5573 24.0625 38.9531C23.0833 40.349 21.7448 41.4479 20.0469 42.25C18.349 43.0417 16.4063 43.4375 14.2187 43.4375ZM53.2539 43.4844C51.0039 43.4844 49.0404 42.9688 47.3633 41.9375C45.6862 40.9062 44.3841 39.4635 43.457 37.6094C42.5299 35.7552 42.0664 33.5885 42.0664 31.1094C42.0664 28.6198 42.5299 26.4427 43.457 24.5781C44.3841 22.7135 45.6862 21.2656 47.3633 20.2344C49.0404 19.2031 51.0039 18.6875 53.2539 18.6875C55.5039 18.6875 57.4674 19.2031 59.1445 20.2344C60.8216 21.2656 62.1237 22.7135 63.0508 24.5781C63.9779 26.4427 64.4414 28.6198 64.4414 31.1094C64.4414 33.5885 63.9779 35.7552 63.0508 37.6094C62.1237 39.4635 60.8216 40.9062 59.1445 41.9375C57.4674 42.9688 55.5039 43.4844 53.2539 43.4844ZM53.2695 39.5625C54.7279 39.5625 55.9362 39.1771 56.8945 38.4062C57.8529 37.6354 58.5612 36.6094 59.0195 35.3281C59.4883 34.0469 59.7227 32.6354 59.7227 31.0937C59.7227 29.5625 59.4883 28.1562 59.0195 26.875C58.5612 25.5833 57.8529 24.5469 56.8945 23.7656C55.9362 22.9844 54.7279 22.5937 53.2695 22.5937C51.8008 22.5937 50.582 22.9844 49.6133 23.7656C48.6549 24.5469 47.9414 25.5833 47.4727 26.875C47.0143 28.1562 46.7852 29.5625 46.7852 31.0937C46.7852 32.6354 47.0143 34.0469 47.4727 35.3281C47.9414 36.6094 48.6549 37.6354 49.6133 38.4062C50.582 39.1771 51.8008 39.5625 53.2695 39.5625ZM81.0781 19V22.75H67.5156V19H81.0781ZM71.2344 43V16.2187C71.2344 14.7187 71.5625 13.474 72.2188 12.4844C72.875 11.4844 73.7448 10.7396 74.8281 10.25C75.9115 9.75 77.0885 9.5 78.3594 9.5C79.2969 9.5 80.099 9.57812 80.7656 9.73437C81.4323 9.88021 81.9271 10.0156 82.25 10.1406L81.1563 13.9219C80.9375 13.8594 80.6563 13.7865 80.3125 13.7031C79.9688 13.6094 79.5521 13.5625 79.0625 13.5625C77.9271 13.5625 77.1146 13.8437 76.625 14.4062C76.1458 14.9687 75.9063 15.7812 75.9063 16.8437V43H71.2344ZM108.043 43.4375C106.085 43.4375 104.324 43.0625 102.762 42.3125C101.21 41.5521 99.9701 40.5104 99.043 39.1875C98.1159 37.8646 97.6211 36.3542 97.5586 34.6562H102.246C102.361 36.0312 102.97 37.1615 104.074 38.0469C105.178 38.9323 106.501 39.375 108.043 39.375C109.272 39.375 110.361 39.0937 111.309 38.5312C112.267 37.9583 113.017 37.1719 113.559 36.1719C114.111 35.1719 114.387 34.0312 114.387 32.75C114.387 31.4479 114.105 30.2865 113.543 29.2656C112.98 28.2448 112.204 27.4427 111.215 26.8594C110.236 26.276 109.111 25.9792 107.84 25.9687C106.871 25.9687 105.897 26.1354 104.918 26.4687C103.939 26.8021 103.147 27.2396 102.543 27.7812L98.1211 27.125L99.918 11H117.512V15.1406H103.934L102.918 24.0938H103.105C103.73 23.4896 104.559 22.9844 105.59 22.5781C106.632 22.1719 107.746 21.9687 108.934 21.9687C110.882 21.9687 112.616 22.4323 114.137 23.3594C115.668 24.2865 116.871 25.5521 117.746 27.1562C118.632 28.75 119.069 30.5833 119.059 32.6562C119.069 34.7292 118.6 36.5781 117.652 38.2031C116.715 39.8281 115.413 41.1094 113.746 42.0469C112.09 42.974 110.189 43.4375 108.043 43.4375Z" fill="black"/>
</svg>
