<svg width="1200" height="56" viewBox="0 0 1200 56" fill="none" xmlns="http://www.w3.org/2000/svg">
<rect x="164" y="4" width="1036" height="48" rx="24" fill="#A49279"/>
<rect x="168" y="8" width="821" height="40" rx="20" fill="#00C2FF" stroke="#A49279" stroke-width="8"/>
<path d="M2.40625 36.75V32.8437L16.2344 11H19.3125V16.75H17.3594L7.46875 32.4062V32.6562H26.4219V36.75H2.40625ZM17.5781 43V35.5625L17.6094 33.7812V11H22.1875V43H17.5781ZM53.6836 43.4844C51.4336 43.4844 49.4701 42.9688 47.793 41.9375C46.1159 40.9062 44.8138 39.4635 43.8867 37.6094C42.9596 35.7552 42.4961 33.5885 42.4961 31.1094C42.4961 28.6198 42.9596 26.4427 43.8867 24.5781C44.8138 22.7135 46.1159 21.2656 47.793 20.2344C49.4701 19.2031 51.4336 18.6875 53.6836 18.6875C55.9336 18.6875 57.8971 19.2031 59.5742 20.2344C61.2513 21.2656 62.5534 22.7135 63.4805 24.5781C64.4076 26.4427 64.8711 28.6198 64.8711 31.1094C64.8711 33.5885 64.4076 35.7552 63.4805 37.6094C62.5534 39.4635 61.2513 40.9062 59.5742 41.9375C57.8971 42.9688 55.9336 43.4844 53.6836 43.4844ZM53.6992 39.5625C55.1576 39.5625 56.3659 39.1771 57.3242 38.4062C58.2826 37.6354 58.9909 36.6094 59.4492 35.3281C59.918 34.0469 60.1523 32.6354 60.1523 31.0937C60.1523 29.5625 59.918 28.1562 59.4492 26.875C58.9909 25.5833 58.2826 24.5469 57.3242 23.7656C56.3659 22.9844 55.1576 22.5937 53.6992 22.5937C52.2305 22.5937 51.0117 22.9844 50.043 23.7656C49.0846 24.5469 48.3711 25.5833 47.9023 26.875C47.444 28.1562 47.2148 29.5625 47.2148 31.0937C47.2148 32.6354 47.444 34.0469 47.9023 35.3281C48.3711 36.6094 49.0846 37.6354 50.043 38.4062C51.0117 39.1771 52.2305 39.5625 53.6992 39.5625ZM81.5078 19V22.75H67.9453V19H81.5078ZM71.6641 43V16.2187C71.6641 14.7187 71.9922 13.474 72.6484 12.4844C73.3047 11.4844 74.1745 10.7396 75.2578 10.25C76.3411 9.75 77.5182 9.5 78.7891 9.5C79.7266 9.5 80.5286 9.57812 81.1953 9.73437C81.862 9.88021 82.3568 10.0156 82.6797 10.1406L81.5859 13.9219C81.3672 13.8594 81.0859 13.7865 80.7422 13.7031C80.3984 13.6094 79.9818 13.5625 79.4922 13.5625C78.3568 13.5625 77.5443 13.8437 77.0547 14.4062C76.5755 14.9687 76.3359 15.7812 76.3359 16.8437V43H71.6641ZM108.473 43.4375C106.514 43.4375 104.754 43.0625 103.191 42.3125C101.639 41.5521 100.4 40.5104 99.4727 39.1875C98.5456 37.8646 98.0508 36.3542 97.9883 34.6562H102.676C102.79 36.0312 103.4 37.1615 104.504 38.0469C105.608 38.9323 106.931 39.375 108.473 39.375C109.702 39.375 110.79 39.0937 111.738 38.5312C112.697 37.9583 113.447 37.1719 113.988 36.1719C114.54 35.1719 114.816 34.0312 114.816 32.75C114.816 31.4479 114.535 30.2865 113.973 29.2656C113.41 28.2448 112.634 27.4427 111.645 26.8594C110.665 26.276 109.54 25.9792 108.27 25.9687C107.301 25.9687 106.327 26.1354 105.348 26.4687C104.368 26.8021 103.577 27.2396 102.973 27.7812L98.5508 27.125L100.348 11H117.941V15.1406H104.363L103.348 24.0938H103.535C104.16 23.4896 104.988 22.9844 106.02 22.5781C107.061 22.1719 108.176 21.9687 109.363 21.9687C111.311 21.9687 113.046 22.4323 114.566 23.3594C116.098 24.2865 117.301 25.5521 118.176 27.1562C119.061 28.75 119.499 30.5833 119.488 32.6562C119.499 34.7292 119.03 36.5781 118.082 38.2031C117.145 39.8281 115.842 41.1094 114.176 42.0469C112.52 42.974 110.618 43.4375 108.473 43.4375Z" fill="black"/>
</svg>
